<?xml version="1.0" encoding="utf-8"?>
<svg xmlns="http://www.w3.org/2000/svg" version="1.0" viewBox="0 0 350 220">
	<title>Scarabaeus with three symbols.</title>
	<path d="M160.5 10c-1.1.5-3.5.6-5.3.3-1.8-.3-6.5.2-10.5 1-3.9.9-11.2 2.1-16.1 2.7-8 1-17.3 3.6-21.8 6.1-1 .5-2.6.9-3.5.9-7.4.1-41.1 18.5-46.1 25.2-.7 1-1.8 1.8-2.3 1.8C54.1 48 41 60.9 41 61.6c0 .1-1.7 3.1-3.8 6.5-8 13.4-13.3 28.7-11.8 33.7.3.9.2 4.9-.3 8.7-.5 4-.5 7.4 0 7.9.5.6.9 2.1.9 3.3 0 3.1 4.9 18.4 6.5 20.3.7.8 1.7 3 2.3 4.8.6 1.8 2.9 5.4 5.1 8 2.2 2.6 4.4 5.9 5 7.4.6 1.5 2.7 3.8 4.8 5.1 2.1 1.3 4.5 3.2 5.3 4.2.8.9 2.3 2.1 3.5 2.6 1.1.5 4.9 2.7 8.4 4.9 3.4 2.2 6.7 4 7.2 4 .8 0 7.5 3.5 9.4 5 .6.4 2.1 1.1 3.5 1.5 2.7.8 10.4 4.2 18.6 8.1 2.8 1.3 6.1 2.4 7.3 2.4 1.2 0 3.6.7 5.3 1.6 1.7.9 4.7 1.6 6.7 1.6s6.5.7 9.9 1.5c3.5.8 7 1.2 7.8.9.7-.3 7.8-.6 15.6-.7 7.9-.1 18.1-.6 22.8-1 4.7-.4 15.1-1.3 23.1-1.9 14.4-1 20.1-2 34.9-5.9 14.5-3.9 20.6-6.3 42.5-17.3 4.4-2.3 10.5-5.9 13.5-8.2 6.8-5.1 16.8-15.2 20.3-20.4 3.3-5.1 13.8-31.2 15-37.7 2.1-11 1-20.4-3.3-27.5-.5-.8-2.5-4.2-4.4-7.5-5.7-9.7-30.6-33.8-39.8-38.4-1.6-.8-2.8-1.8-2.8-2.3 0-.4-.4-.8-1-.8-.5 0-3.9-2.2-7.5-4.9-4.5-3.4-8.9-5.6-13.8-7.1-4-1.2-9.9-3-13.2-4-3.3-1-11.4-3.1-18-4.5-6.6-1.5-13.6-3-15.5-3.5-1.9-.4-6.3-.9-9.7-.9-3.4-.1-10.4-.5-15.5-1.1-11.2-1.2-22.6-1.2-25.3 0zm34 5c16.1 1.1 23.7 2.3 37.5 5.9 15.5 4 19.5 5.2 20.5 6.2.5.5 2 .9 3.5 1 1.4 0 4.1 1 6.1 2.2 1.9 1.2 5 3.1 6.8 4.2 1.9 1.1 5 3.3 7.1 5 2 1.6 5.6 4.1 7.8 5.5 2.3 1.4 6.5 5.2 9.4 8.5 2.9 3.3 8.8 9.6 13.1 14 4.2 4.4 8.3 9.1 9 10.5.8 1.4 1.9 3.5 2.5 4.7.7 1.3 1.7 3.3 2.4 4.5 4.3 8.1 4.8 9.6 4.8 14.8 0 6.4-2.3 14.4-7.2 25-1.9 4.1-3.8 8.8-4.2 10.5-.4 1.6-1.9 4.6-3.4 6.5-1.5 1.9-3.9 5.2-5.2 7.3-2.5 3.8-10.1 10.1-15.5 12.9-3 1.6-12.9 8.1-15.4 10.1-.7.6-2 1.2-2.8 1.3-.8.2-2.2.9-3.1 1.7-1 .9-3.5 1.8-5.7 2.2-2.2.4-6.7 1.7-10 3-3.3 1.2-11.8 3.7-19 5.4-7.1 1.7-15 3.6-17.5 4.2-2.5.6-12.4 1.3-22 1.5-9.6.2-20 .8-23 1.4-8.5 1.7-39.9.3-47.9-2.1-3.5-1-7.8-1.9-9.7-1.9-1.9 0-3.4-.4-3.4-.9s-1.2-1.2-2.6-1.5c-1.5-.4-7.9-3.2-14.3-6.3-6.4-3-12.5-5.9-13.6-6.4-1.1-.5-4.2-2.3-7-3.8-2.7-1.6-7.8-4.4-11.2-6.1-3.5-1.7-8.3-5.2-10.8-7.7C43 150.9 34.8 135 33.3 125c-.3-1.9-1-4.1-1.5-4.8-.6-.6-1.1-5.8-1.1-11.5 0-8.9.4-11.3 3.1-18.7 4.3-12 9.3-21.2 14.3-26.6 16.1-17.3 18.2-19 29.9-25.1 6.3-3.3 12.4-6.4 13.5-7.1 6.7-3.9 30.7-11 44.5-13.2 4.1-.6 8.5-1.6 9.8-2.1 1.3-.5 6-.9 10.5-1 4.5-.1 9.3-.5 10.7-.9 1.4-.5 4.5-.7 7-.4 2.5.2 11.7.9 20.5 1.4z"/>
	<path d="M147 23.7c-1.9.9-3.9 2.4-4.4 3.2-.5.8-2.2 2.7-3.7 4.1-7.4 6.7-9.9 20.3-5.8 31 1.2 3 2.8 7.3 3.6 9.5.7 2.2 3.4 6.2 5.8 8.8 2.4 2.7 5.7 7.4 7.1 10.4 2.6 5.1 2.7 5.8 1.3 8.2-1.3 2.2-2.1 2.6-5.5 2.3-2.1-.2-9.3-.4-15.9-.5-11.6-.2-12.2-.1-18.7 3-3.6 1.7-8.5 4.9-10.9 7-4.1 3.7-4.4 3.8-13.1 4.2-9.1.3-12.8-.5-18-4.1-4-2.7-5.8-1.5-5.8 4.1.1 7.1 1.4 11.4 5.1 16.4 4.5 5.9 10.3 8.4 24.1 9.9 9.1.9 11.1 1.5 12.9 3.5 3.9 4.1 3.8 13.2-.3 24.4-1.3 3.6.4 6.2 6 8.9 3.3 1.7 5.5 2.1 8.8 1.7 5.3-.6 7.4-2.1 7.4-5.3 0-1.9-.5-2.4-2.5-2.4-1.3 0-4-.8-6-1.7-3.5-1.7-3.6-1.9-3.1-6.3 2.4-20.8 2.8-22 7-17.6 1.3 1.5 2.7 4.5 3.1 6.7.4 2.2 1.3 4.3 2.1 4.6 1.4.5 4.1 8.4 4.6 13.8.4 4.3 4.3 5.8 16 6.3 11.8.5 14.1 0 15.6-3.3 2.3-4.9.4-6.2-10-7-11.5-.9-13.6-1.7-15-5.6-.6-1.7-2.1-5.2-3.4-7.7-1.3-2.6-2.4-5.7-2.4-6.9 0-2.6 4.3-7.9 7.2-8.9 3.7-1.1 19.2-11.5 23.6-15.8 4.2-3.9 6.5-7.8 7.5-12.2.8-3.6-1.2-13.3-3.6-17.2-4.7-8-9.6-15-14.4-20.6-1.8-2.2-3.3-4.7-3.3-5.6 0-.9-.9-2.5-2-3.5s-2-3.1-2-4.6c0-1.5-.4-3.1-1-3.4-1.3-.8-1.3-9.4 0-13.2 1.6-4.4 7.4-6.6 11.8-4.4 2.3 1.2 8 3.1 11.9 4.1 1.7.4 4.7 1.7 6.6 2.9 3.7 2.3 9.7 2 9.7-.5 0-3.6-2.5-6.4-7.6-8.4-3.5-1.4-7.3-4.2-10.8-7.8-5-5.1-5.8-5.5-10.7-5.9-3.8-.3-6.5.2-8.9 1.4zm14.2 5c1.6 1.6 6.6 4.8 11.1 7.3 7.9 4.4 11 8 7 8-1.1 0-2.3-.4-2.8-.9-2.4-2.2-13.3-7.4-16.4-7.8-1.9-.2-4.2-.8-5.3-1.4-6.2-3.3-14.8 7-14.8 17.6 0 4.2 5 13.7 16.2 30.5 10.6 16 11.8 18.4 11.7 23.8-.1 8-6.6 15.6-20.1 23.7-7.3 4.3-18.8 9.4-21.4 9.4-1 0-6.7.2-12.5.4-8 .3-12.2 0-17.5-1.4-3.8-1-8.6-1.9-10.6-1.9-6.1 0-13.1-3.8-15.5-8.5-3-5.7-3.3-6.5-3.3-9.7v-3.1l2.3 2.2c2.4 2.2 4.9 2.4 21.7 2.1 5.1-.1 11-1.9 11.6-3.5.6-1.4 3.7-3.5 12.4-8.3 3.7-2.1 6-2.5 12.5-2.6 4.4-.1 11 .3 14.6.7l6.6.8 3.8-3.5c3.3-3.1 3.6-3.9 3-6.8-.9-4.1-6.7-14.1-10.9-18.8-1.8-1.9-3.8-5.3-4.5-7.5-.8-2.2-2.3-5.3-3.4-6.9-4.3-6.1-3.1-19.3 2.3-26.1 8-10.1 16.7-13.1 22.2-7.8zm-30 116.6c-.3 3.2.6 6.5 3.3 13.1 2 4.9 4.3 9.6 5.1 10.4 1.2 1.2 3.3 1.3 10.9.7 8.3-.6 9.6-.5 10.1 1 1.1 2.8-.8 3.4-10.7 3.7-10.7.3-14.9-1.2-14.9-5.5 0-1.3-.7-3.2-1.5-4.3-.8-1-1.5-2.7-1.5-3.6 0-.9-.7-2.9-1.5-4.5-2.2-4.3-4.4-9.6-4.7-11.7-.3-1.8 1.2-2.7 5.2-3.5.3-.1.4 1.8.2 4.2zm-16.6 4.9c-.4 4-1.1 7.7-1.6 8.2-.6.6-1 3.5-1 6.5 0 5.6 0 5.6 4 7.3 2.2.9 4.8 1.4 5.9 1.1 2.4-.6 3.6 1.3 2 3.3-1.4 1.7-4.8 1.5-11.2-.8l-3.7-1.3.5-9.5c.2-5.2.9-10.9 1.4-12.6.7-2.4.5-3.6-1-5.5-2.6-3.4-2.4-3.9 1.7-3.9h3.7l-.7 7.2z"/>
	<path d="M79.3 49.9c-7 2.9-16.3 16-16.3 23.2 0 6.5 4.9 12.7 12.5 15.7 1.7.7 5.9 1.3 9.5 1.4 7.6.2 11-1.3 16.2-7 3.1-3.4 3.7-5 4.3-10.4.6-5.4.4-7-1.5-10.5-2.5-4.9-9.9-12-13.2-12.7-5.9-1.2-7.8-1.2-11.5.3zM89.9 55c6.7 1.9 12.8 10.5 11.8 16.7-.9 5.2-4.9 12.4-7.5 13.4-3 1.2-13.4 1.2-16.5 0-1.3-.5-4-2.5-6-4.4-5.3-5-5.2-9.4.6-17.8 3.4-5 5-6.5 8.2-7.5 5.2-1.6 5.4-1.6 9.4-.4zM262 50.8c-4 1.2-6.7 2.9-10.2 6.3-4.1 4.1-4.7 5.3-5.4 10.5-.4 3.2-.4 14.7-.1 25.6.4 14.4.2 19.8-.6 20.1-.7.2-2.9-.2-5-1.1-3-1.1-4-1.2-5.2-.2-2.8 2.3-1.7 6.3 2.5 9.5 6.1 4.7 4.5 7.7-2 3.9-3.4-2-5.7-1.3-7 2.1-1.3 3.4.2 5.7 4.9 7.7 2.1.9 5.9 3.6 8.6 6.1l5 4.5.6 10.8c.8 12.6 1.3 14.2 4.4 15 6.4 1.6 10.9-7.9 10.5-21.6 0-2.5-.1-5.5-.2-6.7-.1-3.7 10.1-12.3 14.5-12.3 2 0 5.7-4.3 5.7-6.6 0-2.4-1.8-4.4-4-4.4-3.4 0-8.9 2.2-11.4 4.5-2.6 2.4-5.6 3.3-5.6 1.7 0-.5 2.1-2.4 4.8-4.2 7.9-5.6 15.2-12.1 15.2-13.5 0-1.7-3.1-3.5-6.1-3.5-2.6 0-8.3 3.3-12.6 7.3-1.8 1.7-3.6 2.8-3.9 2.4-.3-.3-.9-11.2-1.2-24.1l-.5-23.6 2.7-2.5c1.5-1.4 3.9-2.5 5.4-2.5 3.6 0 9.2-3.5 9.2-5.7-.1-2.3-3.1-5.9-5.6-6.6-1-.3-4.4.2-7.4 1.1zm8.9 4.1c.9 1.6.6 2-1.7 2.9-1.5.6-4 1.3-5.6 1.7-1.6.3-4 1.8-5.5 3.3l-2.6 2.7.7 26.4c.4 14.5.9 26.6 1.2 26.8.6.6 2 0 6.1-2.7 1.7-1.1 3.7-2.3 4.5-2.6.8-.4 2.7-1.8 4.2-3.2 1.8-1.7 3.3-2.2 4.5-1.8 1.7.7 1.7.8-.2 2.2-9.5 6.8-18.5 15.1-18.5 17 0 2.6 4.4 3.9 6.1 1.8.6-.8 1.8-1.4 2.5-1.4.8 0 1.4-.4 1.4-1 0-1.6 5.9-4.1 8.8-3.8 4.7.5 3 2.9-5.2 7.3-12.4 6.6-12.6 6.8-12.6 18.9 0 10.7-1.7 17.9-4.3 18.4-1.2.3-1.6-1.5-2.2-9.5-.3-5.4-.8-11-1.1-12.4-.5-2.5-8.5-10.2-11-10.5-1.7-.3-8.4-5.4-8.4-6.5 0-1.7 2-1.9 5.4-.2 3.1 1.4 3.9 1.5 6.1.3 3.4-1.8 3.3-7.3-.1-7.8-2.9-.4-5.8-3.7-5-5.7.5-1.5 1-1.4 4.1.5 2.7 1.6 3.9 1.9 5.4 1.1 1.9-1.1 1.9-2 1.4-26.8-.4-24.5-.4-26 1.5-28.9 4.2-6.6 17.8-11 20.1-6.5z"/>
</svg>
