<?xml version="1.0" encoding="UTF-8" standalone="no"?>
<svg
   xmlns:dc="http://purl.org/dc/elements/1.1/"
   xmlns:cc="http://creativecommons.org/ns#"
   xmlns:rdf="http://www.w3.org/1999/02/22-rdf-syntax-ns#"
   xmlns:svg="http://www.w3.org/2000/svg"
   xmlns="http://www.w3.org/2000/svg"
   xmlns:sodipodi="http://sodipodi.sourceforge.net/DTD/sodipodi-0.dtd"
   xmlns:inkscape="http://www.inkscape.org/namespaces/inkscape"
   viewBox="0 0 233.33333 146.66667"
   height="146.66667"
   width="233.33333"
   id="svg64"
   version="1.1"
   sodipodi:docname="image-1.svg"
   inkscape:version="0.92.2 5c3e80d, 2017-08-06">
  <sodipodi:namedview
     pagecolor="#ffffff"
     bordercolor="#666666"
     borderopacity="1"
     objecttolerance="10"
     gridtolerance="10"
     guidetolerance="10"
     inkscape:pageopacity="0"
     inkscape:pageshadow="2"
     inkscape:window-width="1722"
     inkscape:window-height="1062"
     id="namedview3861"
     showgrid="false"
     inkscape:zoom="1"
     inkscape:cx="116.66666"
     inkscape:cy="73.333336"
     inkscape:window-x="0"
     inkscape:window-y="0"
     inkscape:window-maximized="0"
     inkscape:current-layer="svg64" />
  <metadata
     id="metadata70">
    <rdf:RDF>
      <cc:Work
         rdf:about="">
        <dc:format>image/svg+xml</dc:format>
        <dc:type
           rdf:resource="http://purl.org/dc/dcmitype/StillImage" />
        <dc:title />
      </cc:Work>
    </rdf:RDF>
  </metadata>
  <defs
     id="defs68" />
  <path
     id="path3763"
     d="m 2.48166,280.85777 c -9.56323,-1.40269 -16.67003,-3.20895 -54.93242,-13.96146 -11.34113,-3.18711 -25.79344,-10.26896 -47.83569,-23.44029 -6.29143,-3.75945 -15.18263,-8.44957 -19.75822,-10.42251 -11.40718,-4.91865 -35.97691,-20.08709 -44.26838,-27.32968 -3.75747,-3.28216 -8.34535,-5.04241 -9.44608,-5.96755 -4.75921,-4 -18.24649,-15.70888 -27.2327,-29.52901 -4.23807,-6.51787 -10.54053,-20.08865 -14.00546,-30.1573 -9.96024,-28.94319 -12.05324,-49.49858 -9.26898,-91.03085 1.27049,-18.95161 2.09783,-22.01923 9.64951,-35.77879 4.54293,-8.27746 8.25988,-16.59314 8.25988,-18.47929 0,-3.63577 34.93525,-38.333582 56.80943,-56.423312 18.98321,-15.698928 77.29439,-46.263768 88.48966,-46.383428 1.55757,-0.0165 11.85264,-3.42851 22.87793,-7.58192 18.72661,-7.05462 22.23621,-7.66313 53.32301,-9.24531 18.30234,-0.93151 41.23229,-2.62592 50.95539,-3.76536 17.67408,-2.07119 48.04071,-0.50439 69.67371,3.5949 5.71951,1.0838 18.35437,3.07615 28.07747,4.42745 37.46592,5.20695 53.65374,8.04479 70.71364,12.39661 33.80031,8.62215 42.35121,11.44516 47.67775,15.7404 5.68307,4.58272 8.9891,6.92105 27.1955,19.235061 15.06621,10.19014 31.87713,23.607917 44.71596,35.690428 5.7195,5.382561 15.07866,12.958991 20.79813,16.836531 5.71948,3.87753 11.51594,8.50397 12.88101,10.28096 5.58844,7.27474 21.4359,41.88938 21.4359,46.82107 0,1.79412 0.83418,4.8872 1.85377,6.8735 3.80624,7.41532 8.54528,27.14974 8.54528,35.58457 0,4.80127 -1.35627,10.80244 -3.01393,13.33597 -1.65766,2.53352 -4.3866,9.88202 -6.06433,16.32998 -1.67769,6.44796 -4.70737,14.8712 -6.7326,18.71831 -3.74884,7.12138 -7.21937,23.37447 -7.10304,33.265 0.0493,4.18933 -4.81999,10.39417 -20.77127,26.46858 -21.0893,21.25215 -32.68136,29.90425 -56.51059,42.17854 -7.23469,3.72653 -16.42972,9.28572 -20.43334,12.35371 -7.5038,5.75014 -24.56224,12.31815 -31.99288,12.31815 -2.31785,0 -14.2743,2.84955 -26.56983,6.33231 -12.29556,3.48279 -30.58856,7.66125 -40.65112,9.28544 -10.06256,1.62418 -25.78292,4.35072 -34.93408,6.05893 -9.65687,1.80257 -41.94693,4.01174 -76.95307,5.2648 -66.11543,2.36662 -70.00237,2.37139 -85.45492,0.10482 z m 87.28875,-29.31893 c 29.46846,-1.58329 36.20343,-2.56173 41.90983,-6.08845 3.73945,-2.31112 7.37689,-5.7079 8.08313,-7.54841 1.03824,-2.7056 2.96957,-3.05214 10.08549,-1.80981 4.84074,0.84513 11.14114,1.46106 14.00086,1.36875 8.35358,-0.26955 56.89743,-6.97794 79.0329,-10.92154 6.29141,-1.12089 17.00939,-2.9433 23.81768,-4.04987 9.76905,-1.58778 14.4516,-3.75982 22.21115,-10.30274 5.40784,-4.55997 10.60929,-8.29084 11.55881,-8.29084 0.94948,0 2.84275,-1.78767 4.20725,-3.97259 1.3645,-2.18493 5.43096,-4.62055 9.03658,-5.41246 3.60558,-0.79191 10.1256,-4.85372 14.48894,-9.02622 4.36333,-4.17253 12.91183,-12.09278 18.99668,-17.60061 10.97667,-9.93577 11.0906,-9.98059 14.54101,-5.71949 3.65728,4.51652 8.01044,5.72978 8.01044,2.23254 0,-1.1342 -1.87183,-3.23116 -4.15961,-4.65991 -5.03027,-3.14148 -5.39372,-7.49359 -0.77379,-9.26642 2.17925,-0.83623 4.73336,0.48412 7.16706,3.70496 2.93562,3.88515 4.33924,4.44803 6.27662,2.51711 1.47132,-1.46645 5.04577,-1.97705 8.71007,-1.24418 4.77582,0.95517 5.97741,0.56793 5.1899,-1.67251 -0.63773,-1.81422 -3.43887,-2.72334 -7.41588,-2.40686 -4.78656,0.38094 -7.47098,-0.86431 -10.69271,-4.96004 -6.01095,-7.64169 -5.43895,-9.81476 2.18227,-8.29051 l 6.48393,1.29679 -5.44403,-7.13748 c -2.99419,-3.92561 -5.44401,-8.60379 -5.44401,-10.39597 0,-4.26925 5.94709,-4.16773 10.75526,0.18366 2.0919,1.89313 3.80344,2.42901 3.80344,1.19086 0,-1.23818 -2.33979,-4.09168 -5.19954,-6.34116 -2.85975,-2.24949 -5.19954,-5.2988 -5.19954,-6.7763 0,-3.66611 8.37407,-12.3136 11.92425,-12.3136 1.58397,0 2.31346,-0.91657 1.6211,-2.03682 -0.69236,-1.12027 -0.27017,-3.88405 0.93807,-6.14175 1.20826,-2.2577 2.5879,-8.27638 3.06584,-13.37488 0.47791,-5.09847 2.20564,-11.92783 3.83934,-15.17633 3.36602,-6.69302 2.05228,-13.92034 -4.17699,-22.97881 -2.19578,-3.19308 -6.60391,-10.90312 -9.79585,-17.13347 -5.44554,-10.62905 -28.02126,-35.46788 -32.23634,-35.46788 -1.05328,0 -3.89509,-2.57376 -6.31515,-5.71948 -16.39887,-21.316302 -32.89335,-37.956579 -37.62403,-37.956579 -1.90998,0 -5.70475,-1.729114 -8.43275,-3.842473 -2.72804,-2.11336 -7.70496,-4.513925 -11.05978,-5.334585 -3.35482,-0.820664 -8.80815,-3.771129 -12.11849,-6.556592 -3.31033,-2.785461 -7.85673,-5.064481 -10.10308,-5.064481 -2.24632,0 -6.91012,-2.08925 -10.36396,-4.64278 -4.08162,-3.01767 -10.78611,-5.12679 -19.15404,-6.02556 -7.08089,-0.76053 -16.61802,-2.51044 -21.19359,-3.88868 -4.5756,-1.37825 -17.67842,-3.22431 -29.1174,-4.10237 -11.43894,-0.87807 -27.34951,-3.17195 -35.3568,-5.09754 -8.00729,-1.92558 -16.43053,-3.93967 -18.71831,-4.47575 -2.28778,-0.53608 -11.17898,-1.97898 -19.75821,-3.20644 -8.57923,-1.22747 -17.95532,-3.4717 -20.83573,-4.9872 -3.44092,-1.81038 -6.41205,-2.09793 -8.66271,-0.8384 -2.34057,1.30985 -5.36308,0.80506 -9.54272,-1.59373 -5.55425,-3.1877 -7.53222,-3.24066 -21.49458,-0.57547 -8.45756,1.61442 -17.44344,2.69506 -19.96857,2.40144 -2.52514,-0.29363 -8.14063,0.98206 -12.47887,2.83486 -14.36666,6.13577 -30.60313,10.74069 -43.24454,12.26484 -6.86338,0.8275 -15.28663,2.78263 -18.71832,4.34472 -3.43169,1.5621 -11.38697,4.82853 -17.6784,7.25875 -6.29143,2.43021 -12.84284,5.63943 -14.55869,7.13161 -1.71584,1.49218 -7.33134,4.82863 -12.47887,7.414329 -5.14754,2.585704 -10.55595,6.401049 -12.0187,8.478544 -1.46275,2.077499 -6.14233,4.402279 -10.39907,5.16618 -15.12064,2.713503 -30.13062,11.933089 -47.56523,29.215997 -17.15995,17.01065 -29.81215,36.90149 -29.87985,46.97485 -0.0394,5.86124 -1.53466,8.00622 -8.80736,12.63417 -5.45143,3.46901 -5.71948,4.41137 -5.71948,20.10739 0,10.02543 -0.92201,17.03765 -2.35682,17.9244 -3.12819,1.93333 -1.03461,25.804 3.3787,38.52343 1.92081,5.5359 1.12942,11.85103 3.87778,13.32192 10.19188,21.37986 -5.4,1.4 28.21844,48.05358 0.92221,1.52177 18.95632,14.68207 24.6758,18.48954 13.89839,9.25221 4.13847,3.05523 25.84432,17.98873 11.346,7.80598 34.12561,26.71691 37.96305,26.71691 1.41237,0 6.68963,2.1915 11.72725,4.87003 12.08365,6.42494 21.24645,9.18455 35.13629,10.58218 15.17537,1.52698 33.75476,4.55523 39.8204,6.49027 7.12228,2.27212 37.29442,4.79616 43.3721,3.62826 2.85976,-0.54954 20.99942,-1.84803 40.31036,-2.88558 z M -43.66183,226.76609 c -3.7453,-2.28351 -8.62629,-4.15185 -10.84664,-4.15185 -2.22034,0 -7.43822,-2.98632 -11.59526,-6.63627 -7.02493,-6.16796 -7.29551,-6.82838 -3.83448,-9.35915 2.04808,-1.49759 5.31661,-2.72289 7.26338,-2.72289 3.87598,0 6.06444,-4.03923 6.06444,-11.19312 0,-2.53739 1.1042,-5.71766 2.45375,-7.06722 1.88514,-1.88512 1.78776,-3.69815 -0.42013,-7.82366 -2.27386,-4.24872 -2.35193,-6.20572 -0.37395,-9.37295 3.55139,-5.68668 3.12975,-8.93735 -2.0062,-15.46665 -4.11412,-5.23025 -5.38185,-5.62496 -14.57086,-4.53666 -6.39263,0.75712 -13.19089,0.089 -18.63326,-1.83115 -4.71271,-1.66275 -11.78813,-3.02317 -15.72316,-3.02317 -3.93502,0 -9.19886,-1.07279 -11.69743,-2.38399 -9.61069,-5.04346 -24.38244,-19.06718 -25.63498,-24.33682 -0.72113,-3.03395 -2.72801,-7.98573 -4.45973,-11.00393 -1.73171,-3.01823 -2.56982,-6.99587 -1.86245,-8.83921 3.08659,-8.04355 3.72546,-32.78305 20.56489,14.87332 3.88862,11.00498 5.1633,10.65408 17.77406,12.91558 5.43042,0.97383 17.20384,3.61442 26.16315,5.86796 10.92048,2.74683 18.11846,3.53229 21.83804,2.38305 3.0516,-0.94284 18.30347,-2.61052 33.89306,-3.70593 15.58961,-1.09544 30.56426,-3.19819 33.277,-4.67282 2.71276,-1.47463 8.39903,-2.87268 12.63613,-3.10679 5.52953,-0.30551 11.22504,-3.10351 20.17988,-9.91373 6.86182,-5.21846 16.11506,-11.34459 20.56272,-13.61363 6.10915,-3.11666 8.94304,-6.36792 11.58872,-13.29553 C 74.2485,70.84579 73.81002,62.22622 67.22118,50.9832 59.41002,37.6545 52.03385,26.4419 49.68595,24.32773 c -1.06535,-0.95931 -4.34187,-3.94061 -7.28114,-6.6251 -6.78756,-6.19921 -8.7681,-3.46446 -2.83292,3.91171 5.48359,6.81492 11.97504,23.37873 11.9356,30.45526 -0.0156,2.85974 -1.18505,7.12893 -2.59803,9.48708 -11.01392,18.38097 -12.03442,19.32647 -25.80473,23.90894 -9.59746,3.19383 -16.46205,4.20218 -23.26676,3.4177 -7.75075,-0.89355 -10.52583,-0.30152 -14.08468,3.00483 -4.42994,4.11559 -4.43497,4.11495 -10.30967,-1.32954 -5.63336,-5.22083 -5.94053,-5.27692 -7.39321,-1.34995 -1.26369,3.41608 -2.8806,3.91413 -9.72623,2.99593 -7.84579,-1.05232 -8.16652,-0.87084 -7.21915,4.08509 0.90262,4.72175 -0.0453,5.51244 -10.58084,8.82629 -10.75953,3.38429 -12.07334,3.40215 -18.70649,0.25453 -3.92381,-1.86197 -10.6285,-3.38539 -14.89933,-3.38539 -14.85855,0 -35.13574,-4.79721 -41.16134,-9.73804 -3.23349,-2.65137 -7.15589,-4.82065 -8.71646,-4.82065 -4.79869,0 -5.75831,-4.21387 -1.92438,-8.4503 4.40192,-4.86408 9.85332,-5.18256 13.4999,-0.78868 5.13953,6.19274 15.1737,8.56163 35.40906,8.35945 l 19.91018,-0.19904 9.57449,-8.4278 c 5.26596,-4.6353 15.98483,-11.0084 23.8197,-14.16248 13.19464,-5.31174 15.85181,-5.66229 36.02942,-4.75318 11.98132,0.53983 25.20219,1.6318 29.37974,2.4266 6.16292,1.17253 8.42224,0.61839 11.97862,-2.93799 4.12167,-4.12167 4.19782,-4.82642 1.27667,-11.81767 C 34.28547,42.58629 29.56504,35.91815 25.50412,31.85725 21.44323,27.79634 15.68664,19.21785 12.7117,12.79394 9.73675,6.37013 4.74639,-1.69355 1.62199,-5.12524 c -3.1244,-3.43169 -6.21234,-8.11127 -6.86211,-10.39906 -0.64975,-2.28779 -2.60567,-7.90329 -4.3465,-12.47888 -4.11008,-10.802999 -4.19581,-28.723803 -0.17448,-36.500001 1.74513,-3.374884 3.94911,-6.136153 4.89763,-6.136153 2.40488,0 19.29198,-16.652056 24.96128,-24.613836 6.07831,-8.53621 11.2939,-11.19067 23.53224,-11.97667 14.09239,-0.90507 23.6153,3.67914 30.16366,14.52037 6.42855,10.64293 14.53327,15.23246 37.54076,21.25865 2.72997,0.71504 3.42567,11.036027 1.28292,19.032596 -2.60203,9.710662 -20.16599,7.009737 -33.24606,-5.112467 -4.26092,-3.948902 -6.68899,-4.652302 -12.37627,-3.585365 -5.12177,0.960852 -9.39844,0.116491 -15.48894,-3.058057 -9.57145,-4.98892 -17.14899,-5.621952 -20.4004,-1.704256 -1.22383,1.474632 -3.40532,7.093639 -4.84773,12.486681 -2.56458,9.588652 -2.44547,10.138858 5.38507,24.876358 4.40419,8.28897 10.53089,17.87859 13.61489,21.31028 3.084,3.43169 8.18605,11.83067 11.33787,18.66441 3.15185,6.83374 8.44542,15.51698 11.76352,19.29609 8.82831,10.05486 14.37773,22.12037 14.37773,31.25986 0,4.4174 1.54628,12.56974 3.43621,18.11635 l 3.43618,10.08474 -6.03594,5.07198 c -3.31981,2.78959 -11.95002,10.61401 -19.17831,17.38763 -7.22826,6.7736 -17.52334,14.48228 -22.87793,17.13042 -17.10883,8.4612 -36.75318,21.40788 -37.3921,24.6434 -0.3404,1.72384 1.67704,8.17287 4.48318,14.33123 2.80617,6.15835 5.42449,13.52803 5.81847,16.37706 0.94357,6.82335 11.12978,12.05958 16.69669,8.583 2.99125,-1.86809 5.19057,-1.70037 9.94533,0.75843 3.35766,1.73631 9.70779,3.15694 14.1114,3.15694 9.50338,0 12.99812,2.90776 12.99812,10.815 0,5.90276 -6.16394,13.99032 -10.91902,14.32659 -1.42986,0.10108 -17.5744,0.43683 -35.87675,0.74602 -24.65363,0.41645 -35.63535,1.44674 -42.3777,3.97577 -11.67751,4.38015 -14.39445,4.2898 -22.66672,-0.75378 z m 39.91131,-31.06944 c -0.80807,-5.67321 -3.34032,-11.61247 -6.30688,-14.79249 -2.7262,-2.9223 -4.95674,-7.41439 -4.95674,-9.98238 0,-7.10501 -5.9987,-17.29583 -9.74236,-16.55076 -3.75321,0.74699 -10.91429,25.2004 -11.00104,37.56596 -0.0439,6.26265 0.71466,7.7993 3.85025,7.7993 2.14772,0 4.92069,1.2239 6.16215,2.71977 1.31569,1.58532 6.65513,2.71974 12.801,2.71974 h 10.5438 z m 27.2333,-209.6611 c -2.80746,-6.97702 -6.95912,-22.417776 -8.27849,-30.789117 -1.60703,-10.196617 3.5518,-27.053989 9.83674,-32.143233 2.65299,-2.14826 3.45815,-3.9967 2.10517,-4.83289 -1.20504,-0.74476 -5.46086,2.26527 -9.45739,6.688948 -6.58994,7.29427 -7.40246,9.580047 -8.72787,24.552954 -1.51728,17.140448 -1.15552,18.485468 9.60664,35.718438 3.33556,5.34107 6.98068,5.93799 4.9152,0.8049 z m 39.89924,-66.33481 c 2.0446,-5.32806 -5.3014,-9.33048 -15.83919,-8.6299 -12.76757,0.84882 -12.62889,4.2549 0.33793,8.30005 14.01852,4.37325 13.95026,4.37179 15.50126,0.32985 z m 177.64842,285.92482 c -5.20057,-15.75782 -8.41213,-38.62368 -6.40687,-45.61569 1.79377,-6.25451 1.34466,-7.56769 -4.73268,-13.83793 -3.693,-3.81019 -11.41436,-9.22704 -17.15861,-12.03745 -12.72149,-6.22403 -16.34639,-11.21175 -13.53065,-18.61765 3.0245,-7.95506 9.98643,-9.81333 18.46539,-4.92879 3.86184,2.22472 7.53728,3.5292 8.16765,2.89883 1.56238,-1.56238 -9.85083,-13.25723 -14.32332,-14.67674 -6.03048,-1.91401 -6.0297,-6.38405 0.002,-13.60946 l 5.74621,-6.88302 7.82775,3.71451 c 10.91019,5.17723 12.60978,2.75672 9.71923,-13.84197 -1.27758,-7.33789 -2.3231,-19.52714 -2.3231,-27.08724 0,-7.85167 -0.99269,-14.35914 -2.31511,-15.17645 -5.75837,-3.55887 3.0748,-44.20881 12.38101,-56.97683 6.97778,-9.573482 21.84069,-18.442562 31.28907,-18.671013 9.42376,-0.227864 21.2392,4.718082 25.47206,10.662603 3.64708,5.12183 3.88221,6.84679 1.79531,13.1702 -1.3208,4.00204 -3.96435,8.08363 -5.87456,9.0702 -3.51411,1.81494 -5.43514,1.74342 -16.21424,-0.60369 -4.65172,-1.0129 -7.24548,-0.12102 -11.69667,4.02194 -5.38878,5.01564 -6.80944,11.28032 -6.12123,26.99315 0.0502,1.14389 0.72091,16.68005 1.49067,34.5248 0.76976,17.84475 2.12,33.61064 3.00051,35.03534 1.16116,1.87882 5.35703,-0.0349 15.27492,-6.96729 7.52071,-5.25671 15.85925,-9.55763 18.53007,-9.55763 5.74964,0 14.10088,5.38236 14.10088,9.08796 0,3.67834 -10.16872,12.66704 -18.19835,16.08648 -3.71767,1.5832 -6.7594,3.58597 -6.7594,4.45063 0,0.86466 -1.36132,1.57211 -3.02519,1.57211 -2.06719,0 -1.37863,-1.64652 2.17438,-5.19953 2.85972,-2.85974 5.99276,-5.19953 6.96228,-5.19953 1.51637,0 4.28762,-4.81487 4.28762,-7.44945 0,-2.44424 -5.25183,-0.13206 -14.5587,6.40954 -5.69602,4.00364 -11.18731,7.27935 -12.20288,7.27935 -1.01559,0 -3.01158,1.40387 -4.43561,3.11972 -4.9276,5.93736 -8.12537,3.50128 -9.55548,-7.27935 -0.75872,-5.71948 -2.13267,-10.39906 -3.05321,-10.39906 -0.92053,0 -2.0636,-2.57377 -2.54017,-5.71948 -0.4765,-3.14572 -1.00664,3.35045 -1.17803,14.43593 -0.17939,11.61168 -1.24611,20.73297 -2.51612,21.51789 -1.40453,0.86803 -1.69491,5.44108 -0.80027,12.60163 1.49681,11.98017 1.33502,12.17538 -9.34025,11.26994 -4.86305,-0.41247 -4.9363,-0.23448 -1.83131,4.44936 1.77887,2.68346 4.99436,5.2137 7.14547,5.62277 8.15454,1.55071 9.11067,4.32402 9.11067,26.42572 0,11.80333 0.90759,22.02153 2.01687,22.70712 4.2133,2.60397 7.83361,-12.2862 6.83951,-28.13066 -1.45984,-23.26815 0.65767,-28.76724 14.15345,-36.75571 6.21891,-3.68111 13.10494,-7.50516 15.30234,-8.49789 2.66315,-1.20317 3.20177,-2.29536 1.61549,-3.27575 -1.30888,-0.80892 -8.53405,0.99133 -16.05598,4.00056 -15.09616,6.03943 -19.71206,5.62592 -19.71206,-1.76584 0,-7.3256 18.99412,-22.68901 22.01267,-17.80494 1.33592,2.16159 8.20548,1.75085 24.96767,-1.49287 13.37464,-2.58818 16.67252,10.80776 4.23068,17.18484 -3.5723,1.83099 -9.14062,5.53717 -12.37411,8.23596 -3.23347,2.69881 -7.06554,4.90692 -8.51571,4.90692 -1.45014,0 -5.15106,2.16059 -8.22427,4.80131 -5.34916,4.59637 -5.62236,5.81692 -6.40132,28.59742 -0.78249,22.8822 -4.24572,41.25563 -8.59645,45.60635 -1.1372,1.1372 -6.36584,2.65682 -11.6192,3.37685 -9.42848,1.29234 -9.58163,1.21791 -11.89081,-5.77903 z M 252.63555,42.19049 c -0.52315,-2.00182 -0.95118,-0.36397 -0.95118,3.63967 0,4.00364 0.42803,5.64149 0.95118,3.63967 0.52311,-2.00182 0.52311,-5.27752 0,-7.27934 z m -0.0125,-17.54842 c -0.66394,-1.65914 -1.15676,-1.16631 -1.25656,1.25655 -0.0902,2.19247 0.40125,3.42086 1.09236,2.72976 0.69112,-0.69111 0.76499,-2.48495 0.1641,-3.98631 z m 26.01705,-53.71701 c 7.98632,-0.053 10.90139,-2.92811 6.96243,-6.86704 -3.98597,-3.985982 -9.78728,-2.302194 -22.12327,6.42111 -11.29435,7.98672 -10.47346,12.10985 1.1221,5.63611 5.08171,-2.83708 11.39914,-5.17266 14.03874,-5.19018 z m -394.12551,72.07689 c -0.59691,-1.55552 -5.14264,-3.88447 -10.10162,-5.17545 -10.56004,-2.74912 -11.81472,-3.55617 -17.95307,-11.54791 -4.10226,-5.34089 -4.48432,-7.60698 -3.33124,-19.75823 1.03946,-10.95391 2.93453,-16.37447 9.38498,-26.84437 4.44538,-7.21541 8.08252,-13.83766 8.08252,-14.7161 0,-3.071505 9.43336,-10.037266 18.16854,-13.415971 6.42213,-2.484039 12.15024,-3.058217 21.13777,-2.118835 11.57089,1.2094 13.03436,2.006319 23.8182,12.970056 6.8169,6.93062 12.68852,15.20734 14.43723,20.35088 2.64556,7.7816 2.53629,10.33742 -1.06717,24.95775 -3.68026,14.93185 -9.80871,25.64751 -14.6682,25.64751 -1.05751,0 -4.64625,2.91553 -7.97498,6.47895 -4.29451,4.59728 -6.80197,5.88692 -8.63374,4.4405 -4.61098,-3.64098 -19.8535,-4.556 -22.51302,-1.35147 -3.07205,3.70159 -7.38193,3.74215 -8.7862,0.0827 z m 25.8359,-20.38383 c 5.27251,3.29274 8.08135,3.02953 8.08135,-0.75728 0,-1.74416 -2.33979,-4.06078 -5.19953,-5.14806 -5.59044,-2.12548 -6.43311,-4.17393 -3.0916,-7.51544 3.1036,-3.1036 3.39148,-21.09407 0.38565,-24.09991 -2.03702,-2.03701 -4.14207,-1.72184 -10.18574,1.52502 -4.18994,2.25097 -8.78238,3.83386 -10.20542,3.51751 -3.77113,-0.83832 -9.13998,7.82926 -9.13998,14.75577 0,3.28665 1.62824,8.92788 3.6183,12.53606 6.72907,12.20046 6.66694,12.16947 14.5876,7.27424 5.89058,-3.64058 8.02355,-4.04002 11.14937,-2.08791 z m 405.32554,182.44046 c 0,-1.64833 -0.87125,-3.53545 -1.9361,-4.19355 -2.47266,-1.5282 -4.95954,2.36633 -3.26345,5.11069 1.91252,3.09451 5.19955,2.51468 5.19955,-0.91714 z m 40.46752,-30.13632 c 0.65814,-1.06486 0.24552,-2.52398 -0.91717,-3.24248 -1.16256,-0.71848 -2.11373,0.15255 -2.11373,1.93609 0,3.65326 1.24801,4.19116 3.0309,1.30639 z m 41.55038,-72.71924 c 0.6329,-1.02402 -0.24771,-2.39852 -1.95706,-3.05443 -1.88777,-0.7244 -3.10777,0.006 -3.10777,1.86187 0,3.36386 3.24993,4.12911 5.06483,1.19256 z"
     style="fill:#000000;stroke-width:2.07981253"
     inkscape:connector-curvature="0" />
</svg>
